<svg width="50" height="50" viewBox="0 0 50 50" fill="none" xmlns="http://www.w3.org/2000/svg">
<path d="M25 50C31.6304 50 37.9893 47.3661 42.6777 42.6777C47.3661 37.9893 50 31.6304 50 25C50 18.3696 47.3661 12.0107 42.6777 7.32233C37.9893 2.63392 31.6304 0 25 0C18.3696 0 12.0107 2.63392 7.32233 7.32233C2.63392 12.0107 0 18.3696 0 25C0 31.6304 2.63392 37.9893 7.32233 42.6777C12.0107 47.3661 18.3696 50 25 50ZM14.0625 26.5625C13.6481 26.5625 13.2507 26.3979 12.9576 26.1049C12.6646 25.8118 12.5 25.4144 12.5 25C12.5 24.5856 12.6646 24.1882 12.9576 23.8951C13.2507 23.6021 13.6481 23.4375 14.0625 23.4375H32.1656L25.4562 16.7313C25.311 16.586 25.1957 16.4135 25.1171 16.2237C25.0385 16.0339 24.998 15.8304 24.998 15.625C24.998 15.4196 25.0385 15.2161 25.1171 15.0263C25.1957 14.8365 25.311 14.664 25.4562 14.5187C25.6015 14.3735 25.774 14.2582 25.9638 14.1796C26.1536 14.101 26.3571 14.0605 26.5625 14.0605C26.7679 14.0605 26.9714 14.101 27.1612 14.1796C27.351 14.2582 27.5235 14.3735 27.6688 14.5187L37.0438 23.8937C37.1893 24.0389 37.3047 24.2113 37.3835 24.4011C37.4622 24.591 37.5028 24.7945 37.5028 25C37.5028 25.2055 37.4622 25.409 37.3835 25.5989C37.3047 25.7887 37.1893 25.9611 37.0438 26.1063L27.6688 35.4813C27.3754 35.7746 26.9774 35.9395 26.5625 35.9395C26.1476 35.9395 25.7496 35.7746 25.4562 35.4813C25.1629 35.1879 24.998 34.7899 24.998 34.375C24.998 33.9601 25.1629 33.5621 25.4562 33.2687L32.1656 26.5625H14.0625Z" fill="#04B2D9"/>
</svg>
